<svg xmlns="http://www.w3.org/2000/svg" viewBox="0 0 20.01 29.89"><defs><style>.cls-1{fill:none;stroke-width:2px;}.cls-1,.cls-2{stroke:#000;stroke-miterlimit:10;}.cls-2{stroke-width:0.5px;}</style></defs><title>Asset 1</title><g id="Layer_2" data-name="Layer 2"><g id="Layer_1-2" data-name="Layer 1"><path class="cls-1" d="M9.52,1h1a4.89,4.89,0,0,1,4.89,4.89v5.34a0,0,0,0,1,0,0H4.63a0,0,0,0,1,0,0V5.89A4.89,4.89,0,0,1,9.52,1Z"/><path class="cls-2" d="M17.7,10.13H2.32A2.06,2.06,0,0,0,.25,12.19V27.58a2.06,2.06,0,0,0,2.07,2.06H17.7a2.06,2.06,0,0,0,2.06-2.06V12.19A2.06,2.06,0,0,0,17.7,10.13Zm-6.54,10V26H8.85V20.1a3.31,3.31,0,1,1,2.31,0Z"/></g></g></svg>