<svg id="Layer_1" data-name="Layer 1" xmlns="http://www.w3.org/2000/svg" viewBox="0 0 18.94 30.89"><defs><style>.cls-1{fill:#fff;stroke-width:0.5px;}.cls-1,.cls-2{stroke:#fff;stroke-miterlimit:10;}.cls-2{fill:none;stroke-linecap:round;stroke-width:2px;}</style></defs><title>open-lock</title><path class="cls-1" d="M16.64,12.31H2.24A1.93,1.93,0,0,0,.3,14.24v14.4a1.94,1.94,0,0,0,1.94,1.94h14.4a1.93,1.93,0,0,0,1.93-1.94V14.24A1.92,1.92,0,0,0,16.64,12.31Zm-6.12,9.33v5.57H8.35V21.64a3.1,3.1,0,1,1,2.17,0Z"/><path class="cls-2" d="M13.14,13.94H4.4V5.79A4.58,4.58,0,0,1,9,1.21H9.9a4.58,4.58,0,0,1,4.57,4.58V9.38"/></svg>