<svg xmlns="http://www.w3.org/2000/svg" viewBox="0 0 20.01 32.61"><defs><style>.cls-1,.cls-2{stroke:#000;stroke-miterlimit:10;}.cls-1{stroke-width:0.5px;}.cls-2{fill:none;stroke-linecap:round;stroke-width:2px;}</style></defs><title>Asset 3</title><g id="Layer_2" data-name="Layer 2"><g id="Layer_1-2" data-name="Layer 1"><path class="cls-1" d="M17.7,12.85H2.32A2.06,2.06,0,0,0,.25,14.91V30.3a2.06,2.06,0,0,0,2.07,2.06H17.7a2.06,2.06,0,0,0,2.06-2.06V14.91A2.06,2.06,0,0,0,17.7,12.85Zm-6.54,10v5.95H8.85V22.82a3.31,3.31,0,1,1,2.31,0Z"/><path class="cls-2" d="M14,14.6H4.63V5.89A4.89,4.89,0,0,1,9.52,1h1a4.89,4.89,0,0,1,4.89,4.89V9.72"/></g></g></svg>